#!OML:ASF F:\VICON\USERDATA\INSTALL\rory3\rory3.ASF
:FULLY-SPECIFIED
:DEGREES
19
root -1.1955322755271767 17.76049829837464 -11.529191020021127 2.9169881263710344 5.350408446536551 -0.5154659112991523
lfemur -34.26409357391612 5.387433480531694 -25.436195038758605
ltibia 35.214108829266294
lfoot -2.8628165422332366 -17.29309078210973
ltoes -12.223498962632753
rfemur 6.374340340676552 5.682235456943204 31.035193430114898
rtibia 75.46279636033464
rfoot 18.908992992608738 -11.490993849945287
rtoes 8.229846828969224
lowerback 14.573005059208924 1.9342528512802062 1.6613381908620835
upperback -0.03646489656270813 2.861964241171539 0.14043103107255006
thorax -8.151314789500956 1.3191137652329834 -1.3978134265992375
lowerneck -18.150407049506697 -6.606825506187829 -1.6191151335654395
upperneck 14.658194021515378 -9.374585689529795 4.266073480123287
head 7.784924527888107 -4.133295136867816 0.5424374530612219
lclavicle 1.1641096254457944e-16 1.6716104776867302e-15
lhumerus -67.44418834054377 -1.4736831766277207 93.84789486167408
lradius 108.27399612489864
lwrist 32.742908840558115
lhand -28.10760257381284 0.17183533513944305
lfingers 7.125019999999998
lthumb -1.489842650377811 30.14640417786766
rclavicle 1.1641096254457944e-16 1.6716104776867302e-15
rhumerus -32.191607359306744 15.825294605050427 -94.70960033399815
rradius 107.37299731872216
rwrist -19.583801969245933
rhand -19.71069452661386 39.33560661867848
rfingers 7.125019999999998
rthumb 6.619105424201983 9.459056653051494
20
root -1.1852625652688806 17.58160132855324 -10.512991786035418 1.9831252910519632 7.275433624149155 0.3561674839013321
lfemur -32.49169507311634 4.559865325091386 -26.134593916782666
ltibia 41.279106144903466
lfoot -7.666753556442626 -18.49958879947512
ltoes 0.002877413244648963
rfemur 2.5844426135063348 1.543182782141064 28.74679683882421
rtibia 84.54779428374366
rfoot 18.3321932611505 -10.232796523554336
rtoes 15.060892071935635
lowerback 15.755197891533172 1.381076693797946 0.8038254112705154
upperback 0.1979340738066403 1.9724078750441638 -0.08325681575615806
thorax -8.611987217720017 0.9142646884317511 -0.9956931468866398
lowerneck -17.7446094551872 -6.570725749220207 -1.8055810915395092
upperneck 14.567394570990762 -9.355525657451187 4.686680445742631
head 7.717105984561243 -4.103295449994786 0.7239812135820152
lclavicle 1.1641091666608898e-16 1.6716104475721144e-15
lhumerus -64.68379049750253 -2.936309466107572 94.97479137893532
lradius 109.18499561004359
lwrist 32.91610795262653
lhand -28.369401930335332 -0.03648943918892478
lfingers 7.125019999999998
lthumb -1.742721887786061 29.93610442743625
rclavicle 1.1641091666608898e-16 1.6716104475721144e-15
rhumerus -35.01840591991447 14.709196026361312 -95.72779634132466
rradius 103.76100023815053
rwrist -20.727898660075905
rhand -18.357802594241978 40.12040365742888
rfingers 7.125019999999998
rthumb 7.92501736966461 10.28900368633176
21
root -1.189847744589323 17.375999024268793 -10.035907928556234 1.0772525235974757 6.591497109619565 1.6460532015791425
lfemur -29.886762401467877 4.3017893017229945 -26.495137286405193
ltibia 45.650179048823425
lfoot -14.0025522713929 -14.527328685855005
ltoes -2.1521442562159017
rfemur -1.0680676166213292 -1.5418144936820326 25.31128969382312
rtibia 93.44461089886418
rfoot 16.798823351502342 -10.373534723612659
rtoes 15.671830937111762
lowerback 17.494615066227993 1.4686169503384527 -0.761362591755938
upperback 0.3081246914707859 1.7599452506316122 -0.49496789197136726
thorax -9.33239027348155 0.8558773102469035 -0.4744689534840475
lowerneck -17.951851896720232 -6.4333566325332265 -1.888547975597973
upperneck 14.41326447534779 -9.336366924307766 5.384839397885456
head 7.657370055581316 -3.9118304866428435 1.0758961147923662
lclavicle 1.1078168429468936e-16 1.6677466511267065e-15
lhumerus -61.64646432721514 -5.040635835475782 95.98362014394183
lradius 110.08444100094988
lwrist 35.60814473547645
lhand -31.32420996812903 1.4129324183277099
lfingers 7.125019999999998
lthumb -4.316562543653657 32.727279648655
rclavicle 1.1125605531871024e-16 1.6667531063473598e-15
rhumerus -36.08073605956896 14.467603541604001 -96.41746210244823
rradius 99.28099008843436
rwrist -19.93319646960035
rhand -18.992919366306786 39.708334428747364
rfingers 7.125019999999998
rthumb 7.147528939618759 10.243929369945375
22
root -1.1901704784098939 17.16378528155928 -9.11031411321698 1.5735556048047208 6.910766294909997 3.172658184738022
lfemur -27.584691889305628 2.403485585283601 -27.47313250409096
ltibia 48.66017857072122
lfoot -18.87670927357654 -8.731246000012844
ltoes -1.2857957557517778
rfemur -7.239272569058901 -5.038313649496959 21.552497281548085
rtibia 102.3591970245484
rfoot 14.846457925326046 -10.674343755741434
rtoes 17.211075483885914
lowerback 17.41044496361112 1.2230344202145884 -2.0905920256008237
upperback 0.4522226901498342 1.1866438605432135 -1.0649459610813081
thorax -9.115030467402372 0.6570883447308077 -0.04218786749490125
lowerneck -18.64324088144335 -6.289949098493665 -1.8476737767621934
upperneck 14.302228724333455 -9.243570401251931 5.768895804286981
head 7.648626224623733 -3.8426735450862477 1.163195507001362
lclavicle 1.1260998513947011e-16 1.6689970709552086e-15
lhumerus -57.83882421756355 -7.299473241910871 96.43526425046657
lradius 109.56471872820107
lwrist 36.3388670040177
lhand -31.72951158669808 11.784140553227427
lfingers 7.125019999999998
lthumb -4.445889316199034 42.75622041355058
rclavicle 1.153536498110037e-16 1.669427503314029e-15
rhumerus -37.51594922575166 13.570037823931735 -97.22561959096606
rradius 94.56226957928558
rwrist -18.794299006464176
rhand -19.069663420883135 39.022047742873795
rfingers 7.125019999999998
rthumb 6.679638616562472 9.365635292040453
23
root -1.1572245483863761 17.071912277547703 -8.316298410224512 2.5536028170137683 6.881098569098822 4.661831554171713
lfemur -25.381865955373108 0.12228399897016651 -28.519207032982457
ltibia 50.41406473870297
lfoot -22.23230927749425 -3.9319484780000105
ltoes -0.5431571256505929
rfemur -14.374974554376575 -7.965366248685309 18.271537498368737
rtibia 109.40435024719594
rfoot 13.578745006214174 -10.519658518796573
rtoes 7.1251805067534875
lowerback 16.9135944888998 1.0816431733545495 -3.367406449912106
upperback 0.22575649718159918 0.80873573458457 -1.4069853260477094
thorax -9.000630529792229 0.5064964221705691 0.22977726720674396
lowerneck -19.058812649340844 -6.138722356484929 -1.7626780517822251
upperneck 13.955551041674974 -9.090163475348213 6.135500815696176
head 7.59674134804055 -3.7352331430228265 1.2387574804343022
lclavicle 1.1122051751444724e-16 1.6680540547115802e-15
lhumerus -54.10061928836777 -9.373565952632184 96.40223041180485
lradius 108.75743826955217
lwrist 36.520448603285296
lhand -30.236407377699813 14.079215660396091
lfingers 7.125019999999998
lthumb -3.408638432253478 41.97396379592934
rclavicle 1.1768223116733178e-16 1.6700322265543207e-15
rhumerus -40.06516171187833 11.950182998372952 -97.94968792305679
rradius 90.56701340674955
rwrist -18.09356955658739
rhand -19.274714590176323 38.359443729861866
rfingers 7.125019999999998
rthumb 6.612882377762854 8.897242116260696
24
root -1.1395517878896053 16.95883661327267 -7.681387042077684 3.592360217724019 6.753723296311717 5.416801202695543
lfemur -22.887014568407427 -1.4512588587878175 -29.022716470812668
ltibia 50.91177705835803
lfoot -24.890213743762978 -1.3968171540204697
ltoes -0.615661653358254
rfemur -22.390576361376354 -9.880359199546628 16.68702155152265
rtibia 115.20234625032425
rfoot 13.133370361327842 -10.170958694155523
rtoes 16.03217080569027
lowerback 16.59278511318797 0.8643833069311793 -4.129837642108268
upperback -0.0516657185315596 0.405003701004814 -1.3786685001712433
thorax -8.985855362337714 0.3172046899007826 0.4980951256267456
lowerneck -19.257877187608432 -5.889903212769744 -1.7714447525596935
upperneck 13.482419351136485 -8.772053790131013 6.406571215636887
head 7.5982181125397386 -3.623223830821478 1.3099095901218814
lclavicle 1.105677252362118e-16 1.6676155941171486e-15
lhumerus -50.17747452364368 -11.119052351397745 96.04573024432342
lradius 107.3879482687427
lwrist 36.186741238894406
lhand -28.144902729673237 14.46861387236333
lfingers 7.125019999999998
lthumb -2.2536905894147097 43.0651372848633
rclavicle 1.1656281661518782e-16 1.6702475302653824e-15
rhumerus -43.18905269139037 10.46958595648956 -98.46258743777712
rradius 87.70910933769832
rwrist -18.29754195667707
rhand -19.337341806181147 38.6788995215496
rfingers 7.125019999999998
rthumb 6.870034966149325 9.291460952073043
